# xmcd CD database file
#
# Track frame offsets:
#	187
#	16672
#	21905
#	40415
#	48585
#	55540
#	59110
#	64137
#	84562
#	89807
#	107515
#	116690
#	136127
#	145225
#	163652
#	167110
#	196002
#	206042
#	217982
#	228370
#	234897
#	246225
#	252787
#	263325
#	280117
#	290497
#	316592
#
# Disc length: 4575 seconds
#
# Revision: 0
# Processed by: cddbd v1.5.1PL2 Copyright (c) Steve Scherf et al.
# Submitted via: CDex 1.60beta1
#
DISCID=7a11dd1b
DTITLE=Stanislas Gorkovenko, St. Peterburg Radio Symphony Orchestra - Stanislas Gorkovenko, St. Peterburg Radio Symphony Orchestra - "GAYNE" Ballet in Three Atcs, Seven Scenes with Prologue [CD2/2)
DYEAR=1998
DGENRE=Classical
TTITLE0=Scene In The Mountains (Act 2 , Scene 4. "Crime")
TTITLE1=Song Of Armen
TTITLE2=Misfortune Of Armen
TTITLE3=Scene Of Gayne (Wait for Armen) (Act 2 , Scene 5. "Love")
TTITLE4=Dance Of Gayne
TTITLE5=Blind Armen
TTITLE6=Scene Of Gayne And Armen
TTITLE7=Love Duet Of Gayne And Armen
TTITLE8=Scene Of Georgiy And Armen
TTITLE9=Monolougue Of Georgiy
TTITLE10=Village In The Mountains (Act 3 , Scene 6. "Conscience")
TTITLE11=Monologue Of Aysha (Memories of Georgiy)
TTITLE12=Dance Of The Mountaineers
TTITLE13=Dance Of Young Mountaineers
TTITLE14=Loneliness Of Aysha
TTITLE15=Scene Of Georgiy. Duet Aysha And Georgiy
TTITLE16=Exit Of Georgiy
TTITLE17=The Harvest Festival (Act 3 , Scene 7. "Atonement")
TTITLE18="Shalakho" (Dance of men)
TTITLE19=Dance Of Nunne
TTITLE20=Dance Of The Girls With Tambourinces
TTITLE21=Emtrance Of The Hunters And Scene With Armen
TTITLE22=Recovery Of Armen's Eyesight
TTITLE23=Duet Of Gayne And Armen
TTITLE24=Sabre Dance
TTITLE25=General Dance (Waltz)
TTITLE26=Finale (Confession of Georgiy)
EXTD=YEAR: 1998
EXTT0=
EXTT1=
EXTT2=
EXTT3=
EXTT4=
EXTT5=
EXTT6=
EXTT7=
EXTT8=
EXTT9=
EXTT10=
EXTT11=
EXTT12=
EXTT13=
EXTT14=
EXTT15=
EXTT16=
EXTT17=
EXTT18=
EXTT19=
EXTT20=
EXTT21=
EXTT22=
EXTT23=
EXTT24=
EXTT25=
EXTT26=
PLAYORDER=
